<svg xmlns="http://www.w3.org/2000/svg" xmlns:xlink="http://www.w3.org/1999/xlink" width="500" zoomAndPan="magnify" viewBox="0 0 375 374.999991" height="500" preserveAspectRatio="xMidYMid meet" version="1.0"><defs><g/><clipPath id="8890fa8a85"><path d="M 0.121094 2 L 4 2 L 4 6 L 0.121094 6 Z M 0.121094 2 " clip-rule="nonzero"/></clipPath><clipPath id="fbd69ba87d"><rect x="0" width="24" y="0" height="7"/></clipPath></defs><g transform="matrix(1, 0, 0, 1, 111, 186)"><g clip-path="url(#fbd69ba87d)"><g clip-path="url(#8890fa8a85)"><g fill="#242424" fill-opacity="1"><g transform="translate(0.533132, 5.100473)"><g><path d="M 1.078125 -2.796875 L 1.4375 -2.796875 L 2.5 0 L 2.1875 0 L 1.9375 -0.6875 L 0.578125 -0.6875 L 0.328125 0 L 0.015625 0 Z M 1.84375 -0.9375 L 1.265625 -2.484375 L 1.25 -2.484375 L 0.671875 -0.9375 Z M 1.84375 -0.9375 "/></g></g></g></g><g fill="#242424" fill-opacity="1"><g transform="translate(4.253645, 5.100473)"><g><path d="M 1.453125 0.0625 C 1.273438 0.0625 1.109375 0.03125 0.953125 -0.03125 C 0.804688 -0.09375 0.679688 -0.179688 0.578125 -0.296875 C 0.472656 -0.421875 0.390625 -0.578125 0.328125 -0.765625 C 0.265625 -0.953125 0.234375 -1.164062 0.234375 -1.40625 C 0.234375 -1.644531 0.265625 -1.851562 0.328125 -2.03125 C 0.390625 -2.21875 0.472656 -2.367188 0.578125 -2.484375 C 0.679688 -2.609375 0.804688 -2.703125 0.953125 -2.765625 C 1.097656 -2.828125 1.257812 -2.859375 1.4375 -2.859375 C 1.582031 -2.859375 1.710938 -2.835938 1.828125 -2.796875 C 1.953125 -2.753906 2.054688 -2.695312 2.140625 -2.625 C 2.222656 -2.550781 2.285156 -2.460938 2.328125 -2.359375 C 2.378906 -2.265625 2.40625 -2.160156 2.40625 -2.046875 C 2.40625 -2.003906 2.398438 -1.96875 2.390625 -1.9375 C 2.390625 -1.90625 2.390625 -1.878906 2.390625 -1.859375 C 2.378906 -1.828125 2.367188 -1.796875 2.359375 -1.765625 L 2.078125 -1.765625 C 2.085938 -1.785156 2.097656 -1.8125 2.109375 -1.84375 C 2.109375 -1.875 2.109375 -1.90625 2.109375 -1.9375 C 2.117188 -1.96875 2.125 -2 2.125 -2.03125 C 2.125 -2.113281 2.109375 -2.1875 2.078125 -2.25 C 2.046875 -2.320312 2 -2.382812 1.9375 -2.4375 C 1.882812 -2.488281 1.816406 -2.523438 1.734375 -2.546875 C 1.648438 -2.578125 1.550781 -2.59375 1.4375 -2.59375 C 1.3125 -2.59375 1.191406 -2.566406 1.078125 -2.515625 C 0.960938 -2.472656 0.863281 -2.398438 0.78125 -2.296875 C 0.695312 -2.203125 0.632812 -2.078125 0.59375 -1.921875 C 0.550781 -1.773438 0.53125 -1.601562 0.53125 -1.40625 C 0.53125 -1.195312 0.550781 -1.015625 0.59375 -0.859375 C 0.644531 -0.710938 0.710938 -0.585938 0.796875 -0.484375 C 0.878906 -0.390625 0.976562 -0.316406 1.09375 -0.265625 C 1.207031 -0.222656 1.332031 -0.203125 1.46875 -0.203125 C 1.59375 -0.203125 1.703125 -0.21875 1.796875 -0.25 C 1.890625 -0.28125 1.96875 -0.320312 2.03125 -0.375 C 2.09375 -0.425781 2.144531 -0.484375 2.1875 -0.546875 L 2.1875 -1.203125 L 1.578125 -1.203125 L 1.578125 -1.46875 L 2.46875 -1.46875 L 2.46875 -0.453125 C 2.40625 -0.359375 2.320312 -0.273438 2.21875 -0.203125 C 2.132812 -0.128906 2.03125 -0.0664062 1.90625 -0.015625 C 1.78125 0.0351562 1.628906 0.0625 1.453125 0.0625 Z M 1.453125 0.0625 "/></g></g></g><g fill="#242424" fill-opacity="1"><g transform="translate(8.20619, 5.100473)"><g><path d="M 0.375 -2.796875 L 2.0625 -2.796875 L 2.0625 -2.546875 L 0.65625 -2.546875 L 0.65625 -1.53125 L 1.8125 -1.53125 L 1.8125 -1.265625 L 0.65625 -1.265625 L 0.65625 -0.265625 L 2.0625 -0.265625 L 2.0625 0 L 0.375 0 Z M 0.375 -2.796875 "/></g></g></g><g fill="#242424" fill-opacity="1"><g transform="translate(11.61466, 5.100473)"><g><path d="M 0.375 -2.796875 L 0.703125 -2.796875 L 2.25 -0.46875 L 2.265625 -0.46875 L 2.265625 -2.796875 L 2.546875 -2.796875 L 2.546875 0 L 2.234375 0 L 0.6875 -2.328125 L 0.65625 -2.328125 L 0.65625 0 L 0.375 0 Z M 0.375 -2.796875 "/></g></g></g><g fill="#242424" fill-opacity="1"><g transform="translate(15.747231, 5.100473)"><g><path d="M 1.453125 0.0625 C 1.273438 0.0625 1.109375 0.03125 0.953125 -0.03125 C 0.804688 -0.09375 0.679688 -0.179688 0.578125 -0.296875 C 0.472656 -0.421875 0.390625 -0.578125 0.328125 -0.765625 C 0.265625 -0.953125 0.234375 -1.164062 0.234375 -1.40625 C 0.234375 -1.644531 0.265625 -1.851562 0.328125 -2.03125 C 0.390625 -2.21875 0.472656 -2.367188 0.578125 -2.484375 C 0.679688 -2.609375 0.804688 -2.703125 0.953125 -2.765625 C 1.097656 -2.828125 1.257812 -2.859375 1.4375 -2.859375 C 1.582031 -2.859375 1.710938 -2.835938 1.828125 -2.796875 C 1.953125 -2.753906 2.054688 -2.695312 2.140625 -2.625 C 2.222656 -2.550781 2.285156 -2.460938 2.328125 -2.359375 C 2.378906 -2.265625 2.40625 -2.160156 2.40625 -2.046875 C 2.40625 -2.003906 2.398438 -1.96875 2.390625 -1.9375 C 2.390625 -1.90625 2.390625 -1.878906 2.390625 -1.859375 C 2.378906 -1.828125 2.367188 -1.796875 2.359375 -1.765625 L 2.078125 -1.765625 C 2.085938 -1.785156 2.097656 -1.8125 2.109375 -1.84375 C 2.109375 -1.875 2.109375 -1.90625 2.109375 -1.9375 C 2.117188 -1.96875 2.125 -2 2.125 -2.03125 C 2.125 -2.113281 2.109375 -2.1875 2.078125 -2.25 C 2.046875 -2.320312 2 -2.382812 1.9375 -2.4375 C 1.882812 -2.488281 1.816406 -2.523438 1.734375 -2.546875 C 1.648438 -2.578125 1.550781 -2.59375 1.4375 -2.59375 C 1.3125 -2.59375 1.191406 -2.566406 1.078125 -2.515625 C 0.960938 -2.472656 0.863281 -2.398438 0.78125 -2.296875 C 0.695312 -2.203125 0.632812 -2.078125 0.59375 -1.921875 C 0.550781 -1.773438 0.53125 -1.601562 0.53125 -1.40625 C 0.53125 -1.195312 0.550781 -1.015625 0.59375 -0.859375 C 0.644531 -0.710938 0.710938 -0.585938 0.796875 -0.484375 C 0.878906 -0.390625 0.976562 -0.316406 1.09375 -0.265625 C 1.207031 -0.222656 1.332031 -0.203125 1.46875 -0.203125 C 1.601562 -0.203125 1.722656 -0.222656 1.828125 -0.265625 C 1.929688 -0.316406 2.015625 -0.367188 2.078125 -0.421875 C 2.160156 -0.492188 2.226562 -0.566406 2.28125 -0.640625 L 2.4375 -0.453125 C 2.375 -0.359375 2.296875 -0.273438 2.203125 -0.203125 C 2.128906 -0.128906 2.03125 -0.0664062 1.90625 -0.015625 C 1.78125 0.0351562 1.628906 0.0625 1.453125 0.0625 Z M 1.453125 0.0625 "/></g></g></g><g fill="#242424" fill-opacity="1"><g transform="translate(19.563755, 5.100473)"><g><path d="M 1 -1.015625 L 0 -2.796875 L 0.328125 -2.796875 L 1.125 -1.359375 L 1.140625 -1.359375 L 1.953125 -2.796875 L 2.28125 -2.796875 L 1.28125 -1.015625 L 1.28125 0 L 1 0 Z M 1 -1.015625 "/></g></g></g></g></g><g fill="#2b2b2b" fill-opacity="1"><g transform="translate(88.19896, 191.143763)"><g><path d="M 3.234375 0 C 4.222656 -0.988281 4.78125 -2.285156 4.90625 -3.890625 C 5.03125 -5.492188 5.09375 -7.160156 5.09375 -8.890625 L 5.09375 -66.203125 L 6.203125 -66.203125 C 7.003906 -61.753906 8.5625 -57.972656 10.875 -54.859375 C 13.195312 -51.742188 15.992188 -49.039062 19.265625 -46.75 C 22.535156 -44.46875 26.035156 -42.398438 29.765625 -40.546875 C 33.503906 -38.703125 37.191406 -36.867188 40.828125 -35.046875 C 44.472656 -33.222656 47.804688 -31.1875 50.828125 -28.9375 C 53.859375 -26.6875 56.3125 -24.03125 58.1875 -20.96875 C 60.070312 -17.914062 61.109375 -14.195312 61.296875 -9.8125 L 60.734375 -40.65625 C 60.554688 -47.4375 59.957031 -52.910156 58.9375 -57.078125 C 57.914062 -61.242188 56.910156 -63.820312 55.921875 -64.8125 L 64.359375 -64.8125 C 63.367188 -63.820312 62.8125 -62.539062 62.6875 -60.96875 C 62.5625 -59.394531 62.5 -57.710938 62.5 -55.921875 L 62.5 1.390625 L 61.296875 1.390625 L 61.296875 0 C 61.296875 -4.445312 60.523438 -8.351562 58.984375 -11.71875 C 57.441406 -15.082031 55.359375 -18.054688 52.734375 -20.640625 C 50.109375 -23.234375 47.160156 -25.5625 43.890625 -27.625 C 40.617188 -29.695312 37.253906 -31.628906 33.796875 -33.421875 C 30.460938 -35.210938 27.175781 -36.957031 23.9375 -38.65625 C 20.695312 -40.351562 17.78125 -42.203125 15.1875 -44.203125 C 12.59375 -46.210938 10.492188 -48.5 8.890625 -51.0625 C 7.285156 -53.625 6.421875 -56.601562 6.296875 -60 L 6.859375 -24.171875 C 7.035156 -17.441406 7.632812 -11.976562 8.65625 -7.78125 C 9.675781 -3.582031 10.679688 -0.988281 11.671875 0 Z M 3.234375 0 "/></g></g></g><g fill="#2b2b2b" fill-opacity="1"><g transform="translate(158.084979, 195.400329)"><g><path d="M 5.25 0 L 0.96875 0 L 17.546875 -46.3125 L 16.515625 -48.59375 L 20.796875 -48.59375 L 42.46875 0 L 38.1875 0 L 34.640625 -7.921875 C 34.054688 -9.242188 33.195312 -10.441406 32.0625 -11.515625 C 30.9375 -12.585938 29.660156 -13.492188 28.234375 -14.234375 C 26.804688 -14.984375 25.332031 -15.550781 23.8125 -15.9375 C 22.289062 -16.320312 20.847656 -16.515625 19.484375 -16.515625 C 17.929688 -16.515625 16.398438 -16.269531 14.890625 -15.78125 C 13.390625 -15.300781 11.925781 -14.546875 10.5 -13.515625 C 9.976562 -13.117188 9.457031 -12.472656 8.9375 -11.578125 C 8.414062 -10.691406 8.046875 -9.863281 7.828125 -9.09375 Z M 10.546875 -18.421875 C 10.316406 -17.546875 10.394531 -17.109375 10.78125 -17.109375 C 10.976562 -17.109375 11.335938 -17.238281 11.859375 -17.5 C 12.828125 -18.039062 13.828125 -18.429688 14.859375 -18.671875 C 15.898438 -18.921875 16.957031 -19.046875 18.03125 -19.046875 C 20.332031 -19.046875 22.597656 -18.5625 24.828125 -17.59375 C 27.066406 -16.625 29.109375 -15.375 30.953125 -13.84375 C 31.503906 -13.394531 31.851562 -13.226562 32 -13.34375 C 32.144531 -13.457031 32.070312 -13.835938 31.78125 -14.484375 L 19.25 -42.5625 C 18.957031 -43.25 18.644531 -43.59375 18.3125 -43.59375 C 17.988281 -43.59375 17.695312 -43.203125 17.4375 -42.421875 Z M 10.546875 -18.421875 "/></g></g></g><g fill="#2b2b2b" fill-opacity="1"><g transform="translate(200.397033, 195.400329)"><g><path d="M 3.890625 0 L 3.890625 -48.59375 L 26.234375 -48.59375 C 28.703125 -48.59375 30.816406 -48.273438 32.578125 -47.640625 C 34.347656 -47.015625 35.796875 -46.179688 36.921875 -45.140625 C 38.054688 -44.109375 38.957031 -42.96875 39.625 -41.71875 C 40.289062 -40.46875 40.753906 -39.234375 41.015625 -38.015625 C 41.273438 -36.804688 41.40625 -35.71875 41.40625 -34.75 C 41.40625 -33.769531 41.273438 -32.671875 41.015625 -31.453125 C 40.753906 -30.242188 40.289062 -29.03125 39.625 -27.8125 C 38.957031 -26.601562 38.054688 -25.476562 36.921875 -24.4375 C 35.796875 -23.40625 34.359375 -22.5625 32.609375 -21.90625 C 30.859375 -21.257812 28.734375 -20.921875 26.234375 -20.890625 L 24.828125 -20.890625 C 24.117188 -20.890625 23.796875 -20.773438 23.859375 -20.546875 C 23.921875 -20.328125 24.242188 -19.988281 24.828125 -19.53125 C 26.191406 -18.46875 27.578125 -17.039062 28.984375 -15.25 C 30.390625 -13.46875 31.984375 -11.378906 33.765625 -8.984375 C 34.773438 -7.660156 35.835938 -6.398438 36.953125 -5.203125 C 38.066406 -4.003906 39.132812 -2.957031 40.15625 -2.0625 C 41.175781 -1.175781 42.046875 -0.488281 42.765625 0 L 37.265625 0 C 36.140625 -0.675781 34.972656 -1.65625 33.765625 -2.9375 C 32.566406 -4.21875 31.367188 -5.648438 30.171875 -7.234375 C 28.972656 -8.828125 27.78125 -10.414062 26.59375 -12 C 25.414062 -13.59375 24.257812 -15.0625 23.125 -16.40625 C 22 -17.75 20.898438 -18.832031 19.828125 -19.65625 C 18.753906 -20.476562 17.734375 -20.890625 16.765625 -20.890625 L 12.4375 -20.890625 L 12.4375 -21.875 L 21.96875 -21.875 C 26.820312 -21.875 30.503906 -23.03125 33.015625 -25.34375 C 35.523438 -27.65625 36.78125 -30.789062 36.78125 -34.75 C 36.78125 -38.695312 35.523438 -41.828125 33.015625 -44.140625 C 30.503906 -46.460938 26.820312 -47.625 21.96875 -47.625 L 10.296875 -47.625 C 9.421875 -47.625 8.769531 -47.441406 8.34375 -47.078125 C 7.925781 -46.722656 7.71875 -45.882812 7.71875 -44.5625 C 7.71875 -44.363281 7.71875 -43.59375 7.71875 -42.25 C 7.71875 -40.90625 7.71875 -39.15625 7.71875 -37 C 7.71875 -34.84375 7.71875 -32.453125 7.71875 -29.828125 C 7.71875 -27.210938 7.726562 -24.519531 7.75 -21.75 C 7.769531 -18.976562 7.78125 -16.296875 7.78125 -13.703125 C 7.78125 -11.109375 7.78125 -8.78125 7.78125 -6.71875 C 7.78125 -4.664062 7.78125 -3.03125 7.78125 -1.8125 C 7.78125 -0.601562 7.78125 0 7.78125 0 Z M 3.890625 0 "/></g></g></g><g fill="#2b2b2b" fill-opacity="1"><g transform="translate(243.986224, 195.400329)"><g><path d="M 5.25 0 L 0.96875 0 L 17.546875 -46.3125 L 16.515625 -48.59375 L 20.796875 -48.59375 L 42.46875 0 L 38.1875 0 L 34.640625 -7.921875 C 34.054688 -9.242188 33.195312 -10.441406 32.0625 -11.515625 C 30.9375 -12.585938 29.660156 -13.492188 28.234375 -14.234375 C 26.804688 -14.984375 25.332031 -15.550781 23.8125 -15.9375 C 22.289062 -16.320312 20.847656 -16.515625 19.484375 -16.515625 C 17.929688 -16.515625 16.398438 -16.269531 14.890625 -15.78125 C 13.390625 -15.300781 11.925781 -14.546875 10.5 -13.515625 C 9.976562 -13.117188 9.457031 -12.472656 8.9375 -11.578125 C 8.414062 -10.691406 8.046875 -9.863281 7.828125 -9.09375 Z M 10.546875 -18.421875 C 10.316406 -17.546875 10.394531 -17.109375 10.78125 -17.109375 C 10.976562 -17.109375 11.335938 -17.238281 11.859375 -17.5 C 12.828125 -18.039062 13.828125 -18.429688 14.859375 -18.671875 C 15.898438 -18.921875 16.957031 -19.046875 18.03125 -19.046875 C 20.332031 -19.046875 22.597656 -18.5625 24.828125 -17.59375 C 27.066406 -16.625 29.109375 -15.375 30.953125 -13.84375 C 31.503906 -13.394531 31.851562 -13.226562 32 -13.34375 C 32.144531 -13.457031 32.070312 -13.835938 31.78125 -14.484375 L 19.25 -42.5625 C 18.957031 -43.25 18.644531 -43.59375 18.3125 -43.59375 C 17.988281 -43.59375 17.695312 -43.203125 17.4375 -42.421875 Z M 10.546875 -18.421875 "/></g></g></g><path stroke-linecap="butt" transform="matrix(0.75, 0, 0, 0.75, 158.555444, 200.261046)" fill="none" stroke-linejoin="miter" d="M -0.00100932 1.000897 L 169.900044 1.000897 " stroke="#2b2b2b" stroke-width="2" stroke-opacity="1" stroke-miterlimit="4"/></svg>